<svg class="drum-visual-svg" data-name="Layer 2" xmlns="http://www.w3.org/2000/svg" viewBox="0 0 794.61898 442.6218"><g id="kick"><path d="M574.57764,389.40736H260.0344V225.27978l132.31408-6.4185q25.40964-1.23261,50.85273.00736l131.37643,6.41114Z" transform="translate(-2.19753 -31.99738)" fill="#4d1414"></path><ellipse class="" id="highlight" cx="415.28721" cy="359.1808" rx="157.0929" ry="11.54992" fill="#ccc"></ellipse></g><g id="drum4"><circle class="" id="highlight-2" data-name="highlight" cx="643.91112" cy="332.03022" r="92.76431" fill="#dcdcdc"></circle><path d="M750.5062,354.32958a104.371,104.371,0,0,0-23.85384-57.43312,9.869,9.869,0,0,0-13.19853-13.22723,104.39953,104.39953,0,0,0-57.71191-24.06286,9.88179,9.88179,0,0,0-18.86719-.03282,104.39545,104.39545,0,0,0-58.04338,24.03689,9.86555,9.86555,0,0,0-13.13982,13.13982,104.36923,104.36923,0,0,0-23.98041,57.57932,9.86576,9.86576,0,0,0-.06143,18.588,104.36667,104.36667,0,0,0,24.16849,58.53351,9.86543,9.86543,0,0,0,13.081,13.05233,104.36731,104.36731,0,0,0,58.26338,23.97884,9.87464,9.87464,0,0,0,18.29221-.03042A104.36825,104.36825,0,0,0,713.386,444.4447a9.86556,9.86556,0,0,0,13.13982-13.13982,104.36734,104.36734,0,0,0,24.04184-58.38731,9.86577,9.86577,0,0,0-.06143-18.588Zm-35.34807,71.62765a9.81177,9.81177,0,0,0-7.11981,7.11981,92.37492,92.37492,0,0,1-56.14953,23.51758,9.86,9.86,0,0,0-11.20719.0268,92.36656,92.36656,0,0,1-56.25589-23.33065A9.81972,9.81972,0,0,0,577.007,425.897a92.37855,92.37855,0,0,1-23.544-57.17933,9.812,9.812,0,0,0,.04939-10.08471,92.37745,92.37745,0,0,1,23.54685-56.53509,9.81146,9.81146,0,0,0,7.11982-7.11981,92.38833,92.38833,0,0,1,57.71842-23.61579,9.79676,9.79676,0,0,0,8.782.01427,92.396,92.396,0,0,1,57.60554,23.81508,9.84678,9.84678,0,0,0,6.821,6.846A92.37977,92.37977,0,0,1,738.705,358.633a9.81211,9.81211,0,0,0,.04939,10.08471A92.3812,92.3812,0,0,1,715.15813,425.95723Z" transform="translate(-2.19753 -31.99738)" fill="#872222"></path></g><g id="drum3"><circle class="" id="highlight-3" data-name="highlight" cx="513.52095" cy="144.42474" r="76.76026" fill="#dcdcdc"></circle><path d="M602.105,168.39724a86.3645,86.3645,0,0,0-19.73849-47.52454A8.16634,8.16634,0,0,0,571.445,109.92749,86.38817,86.38817,0,0,0,523.68978,90.016a8.17694,8.17694,0,0,0-15.61215-.02715,86.38467,86.38467,0,0,0-48.02952,19.89,8.16351,8.16351,0,0,0-10.87289,10.87288A86.36315,86.36315,0,0,0,429.332,168.39724a8.16369,8.16369,0,0,0-.05083,15.38112A86.361,86.361,0,0,0,449.28,232.21345a8.16341,8.16341,0,0,0,10.82423,10.80049,86.36149,86.36149,0,0,0,48.21157,19.84192,8.171,8.171,0,0,0,15.13637-.02517,86.36218,86.36218,0,0,0,47.93666-19.86533,8.16351,8.16351,0,0,0,10.87289-10.87289,86.36149,86.36149,0,0,0,19.894-48.31411,8.16369,8.16369,0,0,0-.05083-15.38112Zm-29.24969,59.27018a8.119,8.119,0,0,0-5.89147,5.89148,76.43812,76.43812,0,0,1-46.4624,19.46023,8.15889,8.15889,0,0,0-9.27369.02218,76.43113,76.43113,0,0,1-46.55041-19.30556,8.12556,8.12556,0,0,0-6.13881-6.11814,76.441,76.441,0,0,1-19.48214-47.31453,8.1193,8.1193,0,0,0,.04087-8.34486,76.44012,76.44012,0,0,1,19.48446-46.78144,8.11878,8.11878,0,0,0,5.89148-5.89148,76.44914,76.44914,0,0,1,47.76062-19.5415,8.10663,8.10663,0,0,0,7.26688.0118A76.45555,76.45555,0,0,1,567.16789,119.462a8.14793,8.14793,0,0,0,5.6442,5.66488,76.44206,76.44206,0,0,1,19.52765,46.83132,8.1193,8.1193,0,0,0,.04087,8.34486A76.44321,76.44321,0,0,1,572.85528,227.66742Z" transform="translate(-2.19753 -31.99738)" fill="#872222"></path></g><g id="drum2"><circle class="" id="highlight-4" data-name="highlight" cx="242.04598" cy="320.18803" r="67.31627" fill="#dcdcdc"></circle><path d="M320.00167,345.14784a75.73894,75.73894,0,0,0-17.31-41.67749,7.16163,7.16163,0,0,0-9.57778-9.5986,75.75966,75.75966,0,0,0-41.8798-17.4617,7.17091,7.17091,0,0,0-13.69135-.02381,75.75659,75.75659,0,0,0-42.12034,17.44285,7.15913,7.15913,0,0,0-9.53517,9.53517,75.73766,75.73766,0,0,0-17.40187,41.78358,7.15929,7.15929,0,0,0-.04458,13.48875,75.7358,75.7358,0,0,0,17.53835,42.476,7.159,7.159,0,0,0,9.49251,9.47168,75.73627,75.73627,0,0,0,42.28,17.40073,7.16573,7.16573,0,0,0,13.27411-.02208,75.73687,75.73687,0,0,0,42.03891-17.42125,7.15914,7.15914,0,0,0,9.53517-9.53517,75.73623,75.73623,0,0,0,17.44644-42.36992,7.15929,7.15929,0,0,0-.04458-13.48875Zm-25.651,51.978a7.12008,7.12008,0,0,0-5.16663,5.16663,67.03371,67.03371,0,0,1-40.746,17.066,7.15506,7.15506,0,0,0-8.13272.01945A67.02765,67.02765,0,0,1,199.482,402.44761a7.12588,7.12588,0,0,0-5.38354-5.36541,67.03635,67.03635,0,0,1-17.08521-41.49332,7.12034,7.12034,0,0,0,.03584-7.31817,67.03553,67.03553,0,0,1,17.08724-41.02582,7.1199,7.1199,0,0,0,5.16664-5.16663A67.04341,67.04341,0,0,1,241.18755,284.941a7.10925,7.10925,0,0,0,6.37281.01035A67.049,67.049,0,0,1,289.363,302.23323a7.1455,7.1455,0,0,0,4.94978,4.96792,67.03715,67.03715,0,0,1,17.12512,41.06956,7.12031,7.12031,0,0,0,.03585,7.31817A67.03829,67.03829,0,0,1,294.35064,397.12588Z" transform="translate(-2.19753 -31.99738)" fill="#872222"></path></g><g id="drum1"><circle class="" id="highlight-5" data-name="highlight" cx="327.20638" cy="148.61887" r="76.76026" fill="#dcdcdc"></circle><path d="M415.79039,172.59137a86.36452,86.36452,0,0,0-19.73848-47.52455,8.16635,8.16635,0,0,0-10.92147-10.94521,86.3882,86.3882,0,0,0-47.75523-19.91145,8.17694,8.17694,0,0,0-15.61215-.02716,86.38478,86.38478,0,0,0-48.02952,19.89,8.16351,8.16351,0,0,0-10.87289,10.87289,86.36308,86.36308,0,0,0-19.84322,47.64552,8.16368,8.16368,0,0,0-.05083,15.38111,86.36088,86.36088,0,0,0,19.99885,48.43509,8.16342,8.16342,0,0,0,10.82424,10.8005A86.36143,86.36143,0,0,0,322.00125,267.05a8.171,8.171,0,0,0,15.13638-.02518,86.3622,86.3622,0,0,0,47.93666-19.86532,8.16351,8.16351,0,0,0,10.87288-10.87289,86.36143,86.36143,0,0,0,19.89406-48.31412,8.16368,8.16368,0,0,0-.05084-15.38111Zm-29.24968,59.27018a8.119,8.119,0,0,0-5.89148,5.89147,76.43807,76.43807,0,0,1-46.46239,19.46024,8.15885,8.15885,0,0,0-9.27369.02218,76.43116,76.43116,0,0,1-46.55041-19.30556,8.12559,8.12559,0,0,0-6.13882-6.11814,76.4411,76.4411,0,0,1-19.48214-47.31453,8.11924,8.11924,0,0,0,.04087-8.34486,76.44013,76.44013,0,0,1,19.48447-46.78145,8.11871,8.11871,0,0,0,5.89147-5.89147,76.44919,76.44919,0,0,1,47.76063-19.5415,8.10661,8.10661,0,0,0,7.26687.0118,76.45547,76.45547,0,0,1,47.66722,19.70642,8.148,8.148,0,0,0,5.64421,5.66488,76.4421,76.4421,0,0,1,19.52765,46.83132,8.11924,8.11924,0,0,0,.04087,8.34486A76.44334,76.44334,0,0,1,386.54071,231.86155Z" transform="translate(-2.19753 -31.99738)" fill="#872222"></path></g><g id="crash3"><circle class="" id="highlight-6" data-name="highlight" cx="681.9461" cy="153.08317" r="112.65323" fill="#c3a22e"></circle><path d="M775.223,251.368a112.19182,112.19182,0,0,1-35.53836,31.72248q-2.51259,1.42383-5.066,2.704l-50.29193-100.524ZM628.60265,87.07059a112.18884,112.18884,0,0,0-35.59272,31.79683l91.31677,66.40307L633.80982,84.297Q631.18608,85.61009,628.60265,87.07059Z" transform="translate(-2.19753 -31.99738)" fill="#fff" opacity="0.28"></path><circle cx="681.9461" cy="153.08317" r="96.60944" fill="none" stroke="#292929" stroke-miterlimit="10"></circle><circle cx="681.9461" cy="153.08317" r="88.46644" fill="none" stroke="#292929" stroke-miterlimit="10"></circle><circle cx="681.9461" cy="153.08317" r="81.89606" fill="none" stroke="#292929" stroke-miterlimit="10"></circle><circle cx="681.9461" cy="153.08317" r="27.31341" fill="none" stroke="#292929" stroke-miterlimit="10"></circle></g><g id="crash2"><circle class="" id="highlight-7" data-name="highlight" cx="98.65061" cy="295.50598" r="98.6334" fill="#c3a22e"></circle><path d="M180.59254,385.54123A98.22924,98.22924,0,0,1,149.477,413.31581q-2.19988,1.24664-4.43551,2.36748l-44.033-88.01363ZM52.2193,241.69085a98.22678,98.22678,0,0,0-31.16316,27.83968l79.95228,58.13913-44.23-88.40719Q54.48121,240.4121,52.2193,241.69085Z" transform="translate(-2.19753 -31.99738)" fill="#fff" opacity="0.28"></path><circle cx="98.65061" cy="295.50598" r="84.58628" fill="none" stroke="#292929" stroke-miterlimit="10"></circle><circle cx="98.65061" cy="295.50598" r="77.45669" fill="none" stroke="#292929" stroke-miterlimit="10"></circle><circle cx="98.65061" cy="295.50598" r="71.704" fill="none" stroke="#292929" stroke-miterlimit="10"></circle><circle cx="98.65061" cy="295.50598" r="23.91423" fill="none" stroke="#292929" stroke-miterlimit="10"></circle></g><g id="crash1"><circle class="" id="highlight-8" data-name="highlight" cx="181.78252" cy="105.86023" r="105.84177" fill="#c3a22e"></circle><path d="M269.55236,200.137a105.40812,105.40812,0,0,1-33.38957,29.80441q-2.36065,1.33774-4.75967,2.5405l-47.25107-94.44588ZM131.7973,45.77372A105.40545,105.40545,0,0,0,98.35666,75.648l85.79539,62.38807L136.68962,43.16787Q134.22452,44.40152,131.7973,45.77372Z" transform="translate(-2.19753 -31.99738)" fill="#fff" opacity="0.28"></path><circle cx="181.78252" cy="105.86023" r="90.76804" fill="none" stroke="#292929" stroke-miterlimit="10"></circle><circle cx="181.78252" cy="105.86023" r="83.11741" fill="none" stroke="#292929" stroke-miterlimit="10"></circle><circle cx="181.78252" cy="105.86023" r="76.9443" fill="none" stroke="#292929" stroke-miterlimit="10"></circle><circle cx="181.78252" cy="105.86023" r="25.66193" fill="none" stroke="#292929" stroke-miterlimit="10"></circle></g></svg>