<?xml version="1.0" encoding="utf-8"?>
<!-- Generator: Adobe Illustrator 26.0.0, SVG Export Plug-In . SVG Version: 6.00 Build 0)  -->
<svg version="1.1" id="Layer_1" xmlns="http://www.w3.org/2000/svg" xmlns:xlink="http://www.w3.org/1999/xlink" x="0px" y="0px"
	 viewBox="0 0 794.6 442.6" style="enable-background:new 0 0 794.6 442.6;" xml:space="preserve">
<style type="text/css">
	.st0{fill:#4D1414;}
	.st1{fill:#CCCCCC;}
	.st2{fill:#DCDCDC;}
	.st3{fill:#872222;}
	.st4{fill:#C3A22E;}
	.st5{opacity:0.28;fill:#FFFFFF;enable-background:new    ;}
	.st6{fill:none;stroke:#292929;stroke-miterlimit:10;}
	.st7{fill:#231F20;}
	.st8{font-family:'ArialMT';}
	.st9{font-size:30px;}
</style>
<g id="kick">
	<path class="st0" d="M572.4,357.4H257.8V193.3l132.3-6.4c16.9-0.8,33.9-0.8,50.9,0l131.4,6.4L572.4,357.4L572.4,357.4z"/>
	<ellipse id="highlight" class="st1" cx="415.3" cy="359.2" rx="157.1" ry="11.5"/>
</g>
<g id="drum4">
	<circle id="highlight-2" class="st2" cx="643.9" cy="332" r="92.8"/>
	<path class="st3" d="M748.3,322.3c-1.9-21.1-10.3-41.2-23.9-57.4c2.4-4.9,0.4-10.8-4.5-13.2c-2.7-1.4-6-1.4-8.7,0
		c-16.3-13.7-36.5-22.1-57.7-24.1c-1.6-5.2-7.2-8.1-12.4-6.5c-3.1,1-5.5,3.4-6.5,6.5c-21.4,1.9-41.6,10.3-58,24
		c-4.9-2.3-10.8-0.2-13.1,4.7c-1.3,2.7-1.3,5.8,0,8.4c-13.7,16.3-22,36.4-24,57.6c-5.1,1.8-7.8,7.4-6,12.6c1,2.8,3.2,5,6,6
		c1.8,21.5,10.2,42,24.2,58.5c-2.3,5-0.1,10.8,4.9,13.1c2.6,1.2,5.6,1.2,8.2,0c16.5,13.8,36.8,22.2,58.3,24c2.1,5,7.8,7.5,12.9,5.4
		c2.5-1,4.4-3,5.4-5.4c21.3-1.9,41.5-10.3,57.9-24c4.9,2.3,10.8,0.2,13.1-4.7c1.3-2.7,1.3-5.8,0-8.4c13.9-16.5,22.2-36.9,24-58.4
		c5.1-1.8,7.8-7.5,5.9-12.6C753.3,325.5,751.1,323.3,748.3,322.3L748.3,322.3z M713,394c-3.5,0.9-6.2,3.6-7.1,7.1
		c-15.5,14-35.3,22.2-56.1,23.5c-3.4-2.3-7.8-2.3-11.2,0c-20.9-1.2-40.7-9.4-56.3-23.3c-0.8-3.7-3.7-6.6-7.4-7.4
		c-14.2-15.8-22.5-36-23.5-57.2c1.9-3.1,1.9-7,0-10.1c1.2-21,9.5-40.9,23.5-56.5c3.5-0.9,6.2-3.6,7.1-7.1
		c15.9-14.3,36.3-22.7,57.7-23.6c2.8,1.4,6,1.4,8.8,0c21.4,1,41.7,9.4,57.6,23.8c0.9,3.3,3.5,5.9,6.8,6.8
		c14.1,15.6,22.4,35.6,23.6,56.6c-1.8,3.1-1.8,7,0,10.1C735.5,357.9,727.2,378.2,713,394z"/>
</g>
<g id="drum3">
	<circle id="highlight-3" class="st2" cx="513.5" cy="144.4" r="76.8"/>
	<path class="st3" d="M599.9,136.4c-1.6-17.5-8.5-34.1-19.7-47.5c2-4,0.3-8.9-3.7-10.9c-2.3-1.1-4.9-1.1-7.2,0
		c-13.5-11.4-30.2-18.3-47.8-19.9c-1.3-4.3-5.9-6.7-10.2-5.4c-2.6,0.8-4.6,2.8-5.4,5.4c-17.7,1.5-34.4,8.5-48,19.9
		c-4.1-1.9-8.9-0.2-10.9,3.9c-1,2.2-1,4.8,0,7c-11.3,13.5-18.2,30.1-19.8,47.6c-4.3,1.5-6.5,6.2-5,10.4c0.8,2.3,2.6,4.1,4.9,5
		c1.5,17.8,8.5,34.8,20,48.4c-1.9,4.1,0,8.9,4.1,10.8c2.2,1,4.6,1,6.8,0c13.6,11.4,30.5,18.4,48.2,19.8c1.7,4.2,6.5,6.2,10.7,4.5
		c2-0.8,3.7-2.5,4.5-4.5c17.6-1.6,34.4-8.5,47.9-19.9c4.1,1.9,8.9,0.2,10.9-3.9c1-2.2,1-4.8,0-7c11.5-13.7,18.4-30.5,19.9-48.3
		c4.2-1.5,6.4-6.2,4.9-10.4C604,139,602.2,137.2,599.9,136.4L599.9,136.4z M570.7,195.7c-2.9,0.7-5.2,3-5.9,5.9
		c-12.8,11.6-29.2,18.4-46.5,19.5c-2.8-1.9-6.5-1.9-9.3,0c-17.3-1-33.7-7.8-46.6-19.3c-0.7-3.1-3.1-5.4-6.1-6.1
		c-11.7-13.1-18.6-29.8-19.5-47.3c1.6-2.6,1.6-5.8,0-8.3c1-17.4,7.9-33.9,19.5-46.8c2.9-0.7,5.2-3,5.9-5.9
		c13.2-11.9,30.1-18.8,47.8-19.5c2.3,1.2,5,1.2,7.3,0c17.7,0.8,34.5,7.8,47.7,19.7c0.8,2.7,2.9,4.9,5.6,5.7
		c11.7,12.9,18.5,29.5,19.5,46.8c-1.5,2.6-1.5,5.8,0,8.3C589.3,165.9,582.4,182.6,570.7,195.7z"/>
</g>
<g id="drum2">
	<circle id="highlight-4" class="st2" cx="242" cy="320.2" r="67.3"/>
	<path class="st3" d="M317.8,313.2c-1.4-15.3-7.4-29.9-17.3-41.7c1.8-3.5,0.3-7.8-3.3-9.6c-2-1-4.3-1-6.3,0
		c-11.8-10-26.5-16.1-41.9-17.5c-1.2-3.8-5.2-5.9-9-4.7c-2.2,0.7-4,2.5-4.7,4.7c-15.5,1.4-30.2,7.4-42.1,17.4
		c-3.6-1.7-7.8-0.2-9.5,3.4c-0.9,1.9-0.9,4.2,0,6.1c-9.9,11.8-16,26.4-17.4,41.8c-3.7,1.3-5.7,5.4-4.4,9.1c0.7,2,2.3,3.6,4.3,4.4
		c1.3,15.6,7.4,30.5,17.5,42.5c-1.6,3.6,0,7.8,3.6,9.5c1.9,0.9,4,0.9,5.9,0c12,10,26.7,16.1,42.3,17.4c1.5,3.7,5.7,5.4,9.3,3.9
		c1.8-0.7,3.2-2.2,3.9-3.9c15.5-1.4,30.1-7.4,42-17.4c3.6,1.7,7.8,0.2,9.5-3.4c0.9-1.9,0.9-4.2,0-6.1c10.1-12,16.1-26.8,17.4-42.4
		c3.7-1.3,5.7-5.4,4.3-9.2C321.4,315.5,319.8,313.9,317.8,313.2L317.8,313.2z M292.2,365.1c-2.5,0.6-4.5,2.6-5.2,5.2
		c-11.3,10.1-25.6,16.1-40.7,17.1c-2.5-1.7-5.7-1.7-8.1,0c-15.1-0.9-29.5-6.8-40.8-16.9c-0.6-2.7-2.7-4.8-5.4-5.4
		c-10.3-11.5-16.3-26.1-17.1-41.5c1.4-2.2,1.4-5.1,0-7.3c0.9-15.2,6.9-29.7,17.1-41c2.5-0.6,4.5-2.6,5.2-5.2
		c11.6-10.4,26.4-16.5,41.9-17.1c2,1,4.4,1,6.4,0c15.5,0.7,30.3,6.9,41.8,17.3c0.7,2.4,2.5,4.3,4.9,5c10.2,11.3,16.3,25.8,17.1,41.1
		c-1.3,2.3-1.3,5.1,0,7.3C308.5,339,302.5,353.7,292.2,365.1L292.2,365.1z"/>
</g>
<g id="drum1">
	<circle id="highlight-5" class="st2" cx="327.2" cy="148.6" r="76.8"/>
	<path class="st3" d="M413.6,140.6c-1.6-17.5-8.5-34.1-19.7-47.5c2-4,0.3-8.9-3.7-10.9c-2.3-1.1-4.9-1.1-7.2,0
		c-13.5-11.4-30.2-18.3-47.8-19.9c-1.3-4.3-5.9-6.7-10.2-5.4c-2.6,0.8-4.6,2.8-5.4,5.4c-17.7,1.5-34.4,8.5-48,19.9
		c-4.1-1.9-8.9-0.2-10.9,3.9c-1,2.2-1,4.8,0,7c-11.3,13.5-18.2,30.1-19.8,47.6c-4.3,1.5-6.5,6.2-5,10.4c0.8,2.3,2.6,4.1,4.9,5
		c1.5,17.8,8.5,34.8,20,48.4c-1.9,4.1,0,8.9,4.1,10.8c2.2,1,4.6,1,6.8,0c13.6,11.4,30.5,18.4,48.2,19.8c1.7,4.2,6.5,6.2,10.7,4.5
		c2-0.8,3.7-2.5,4.5-4.5c17.6-1.6,34.4-8.5,47.9-19.9c4.1,1.9,8.9,0.2,10.9-3.9c1-2.2,1-4.8,0-7c11.5-13.7,18.4-30.5,19.9-48.3
		c4.2-1.5,6.4-6.2,4.9-10.4C417.7,143.2,415.9,141.4,413.6,140.6L413.6,140.6z M384.3,199.9c-2.9,0.7-5.2,3-5.9,5.9
		c-12.8,11.6-29.2,18.4-46.5,19.5c-2.8-1.9-6.5-1.9-9.3,0c-17.3-1-33.7-7.8-46.6-19.3c-0.7-3.1-3.1-5.4-6.1-6.1
		c-11.7-13.1-18.6-29.8-19.5-47.3c1.6-2.6,1.6-5.8,0-8.3c1-17.4,7.9-33.9,19.5-46.8c2.9-0.7,5.2-3,5.9-5.9
		c13.2-11.9,30.1-18.8,47.8-19.5c2.3,1.2,5,1.2,7.3,0c17.7,0.8,34.5,7.8,47.7,19.7c0.8,2.7,2.9,4.9,5.6,5.7
		c11.7,12.9,18.5,29.5,19.5,46.8c-1.5,2.6-1.5,5.8,0,8.3C403,170.1,396.1,186.8,384.3,199.9L384.3,199.9z"/>
</g>
<g id="crash3">
	<circle id="highlight-6" class="st4" cx="681.9" cy="153.1" r="112.7"/>
	<path class="st5" d="M773,219.4c-9.4,13-21.6,23.8-35.5,31.7c-1.7,0.9-3.4,1.9-5.1,2.7l-50.3-100.5L773,219.4z M626.4,55.1
		c-14,7.9-26.1,18.8-35.6,31.8l91.3,66.4l-50.5-101C629.9,53.2,628.1,54.1,626.4,55.1z"/>
	<circle class="st6" cx="681.9" cy="153.1" r="96.6"/>
	<circle class="st6" cx="681.9" cy="153.1" r="88.5"/>
	<circle class="st6" cx="681.9" cy="153.1" r="81.9"/>
	<circle class="st6" cx="681.9" cy="153.1" r="27.3"/>
</g>
<g id="crash2">
	<circle id="highlight-7" class="st4" cx="98.7" cy="295.5" r="98.6"/>
	<path class="st5" d="M178.4,353.5c-8.3,11.4-18.9,20.9-31.1,27.8c-1.5,0.8-2.9,1.6-4.4,2.4l-44-88L178.4,353.5z M50,209.7
		c-12.3,6.9-22.9,16.4-31.2,27.8l80,58.1l-44.2-88.4C53,208,51.5,208.8,50,209.7z"/>
	<circle class="st6" cx="98.7" cy="295.5" r="84.6"/>
	<circle class="st6" cx="98.7" cy="295.5" r="77.5"/>
	<circle class="st6" cx="98.7" cy="295.5" r="71.7"/>
	<circle class="st6" cx="98.7" cy="295.5" r="23.9"/>
</g>
<g id="crash1">
	<circle id="highlight-8" class="st4" cx="181.8" cy="105.9" r="105.8"/>
	<path class="st5" d="M267.4,168.1c-8.9,12.2-20.3,22.4-33.4,29.8c-1.6,0.9-3.2,1.7-4.8,2.5L182,106L267.4,168.1z M129.6,13.8
		c-13.2,7.4-24.6,17.6-33.4,29.9L182,106l-47.5-94.9C132.8,12,131.2,12.9,129.6,13.8z"/>
	<circle class="st6" cx="181.8" cy="105.9" r="90.8"/>
	<circle class="st6" cx="181.8" cy="105.9" r="83.1"/>
	<circle class="st6" cx="181.8" cy="105.9" r="76.9"/>
	<circle class="st6" cx="181.8" cy="105.9" r="25.7"/>
</g>
<text transform="matrix(1 0 0 1 68.4513 353.1194)" class="st7 st8 st9">Side</text>
<text transform="matrix(1 0 0 1 188.0028 332.0001)" class="st7 st8 st9">Down(L)</text>
<text transform="matrix(1 0 0 1 138.65 72.1001)" class="st7 st8 st9">Top(L)</text>
<text transform="matrix(1 0 0 1 287.6242 162.7805)" class="st7 st8 st9">Twist(L)</text>
<text transform="matrix(1 0 0 1 365.4021 373.0004)" class="st7 st8 st9">Down(R)</text>
<text transform="matrix(1 0 0 1 615.8209 364.5214)" class="st7 st8 st9">Side</text>
<text transform="matrix(1 0 0 1 456.7462 159.3832)" class="st7 st8 st9">Twist(R)</text>
<text transform="matrix(1 0 0 1 639.9902 118.1524)" class="st7 st8 st9">Top(R)</text>
</svg>
